<svg xmlns="http://www.w3.org/2000/svg" width="1200" height="630" viewBox="0 0 1200 630">
  <rect width="1200" height="630" fill="#ffffff"/>
  <g transform="translate(0, 0)">
    <rect x="100" y="115" rx="24" ry="24" width="1000" height="400" fill="#f6f8fa" stroke="#e5e7eb"/>
    <g transform="translate(400,200)">
      <circle cx="-120" cy="115" r="96" fill="#0f172a"/>
      <path fill="#ffffff" transform="translate(-186,49) scale(0.7)"
        d="M165 115c0 28-18 51-43 59 3 3 5 8 5 13v24c0 3-2 5-5 5-30 0-43-16-51-26-3-4-9-6-14-6s-11 2-14 6c-8 10-21 26-51 26-3 0-5-2-5-5v-24c0-5 2-10 5-13-25-8-43-31-43-59 0-34 28-62 62-62h92c34 0 62 28 62 62zm-62-30c-7 0-12 6-12 12s5 12 12 12 12-6 12-12-5-12-12-12zm-80 0c-7 0-12 6-12 12s5 12 12 12 12-6 12-12-5-12-12-12z"/>
    </g>
    <text x="520" y="245" font-family="'Inter', system-ui, -apple-system, Segoe UI, Roboto, Ubuntu, Cantarell, 'Helvetica Neue', Arial" font-size="40" fill="#111827">Media Downloader</text>
    <text x="520" y="295" font-family="'Inter', system-ui, -apple-system, Segoe UI, Roboto, Ubuntu, Cantarell, 'Helvetica Neue', Arial" font-size="22" fill="#6b7280">Python • FastAPI • JavaScript</text>
    <text x="520" y="345" font-family="'Inter', system-ui, -apple-system, Segoe UI, Roboto, Ubuntu, Cantarell, 'Helvetica Neue', Arial" font-size="20" fill="#374151">Paste a link, get the file — safely and fast.</text>
  </g>
</svg>
